# xmcd CD database file
#
# Track frame offsets:
#	150
#	11955
#	22890
#	36530
#	46807
#	65855
#	82087
#	97037
#	107525
#	121182
#	134965
#	146502
#	159647
#	172832
#	184220
#	194830
#
# Disc length: 2729 seconds
#
# Revision: 4
# Processed by: cddbd v1.5.2PL0 Copyright (c) Steve Scherf et al.
# Submitted via: CDex 1.51
#
DISCID=ee0aa710
DTITLE=Various Artist - Country Lovesongs - Vol.3
DYEAR=2001
DGENRE=Country
TTITLE0=Kenny Rogers - I Just Want To Give My Love To You
TTITLE1=Johnny Cash - I Love You Because
TTITLE2=Freddy Fender - Mexican Rose
TTITLE3=Gene Watson - Farewell Party
TTITLE4=Nitty Gritty Dirt Band - Mr. Bojangles
TTITLE5=Mel Tellis - Rose Of El Paso
TTITLE6=Lynn  Anderson - Desperado
TTITLE7=Waylon Jennings - Lorena
TTITLE8=George Jones - A Good Year For The Roses
TTITLE9=Willie Nelson - Home Is Where You're Happy
TTITLE10=Patsy Cline - Let The Teardrops Fall
TTITLE11=Tammy Wynette - Stand By Your Man
TTITLE12=Lynn  Anderson - Top Of The World
TTITLE13=Patsy Cline - I've Lost And Lost Again
TTITLE14=Kenny Rogers - She Even Woke Me Up To Say Goodbye
TTITLE15=Freddy Fender - Before The Next Teardrop Falls
EXTD=YEAR: 2001
EXTT0=
EXTT1=
EXTT2=
EXTT3=
EXTT4=
EXTT5=
EXTT6=
EXTT7=
EXTT8=
EXTT9=
EXTT10=
EXTT11=
EXTT12=
EXTT13=
EXTT14=
EXTT15=
PLAYORDER=
